<svg width="44" height="44" viewBox="0 0 44 44" fill="none" xmlns="http://www.w3.org/2000/svg">
  <path 
    d="M32.468 20.6985L23.3014 11.5318C23.127 11.3649 22.9214 11.2341 22.6964 11.1468C22.25 10.9634 21.7494 10.9634 21.303 11.1468C21.078 11.2341 20.8724 11.3649 20.698 11.5318L11.5314 20.6985C11.3604 20.8694 11.2248 21.0723 11.1323 21.2957C11.0398 21.519 10.9922 21.7584 10.9922 22.0001C10.9922 22.4884 11.1861 22.9566 11.5314 23.3018C11.8766 23.647 12.3448 23.841 12.833 23.841C13.3212 23.841 13.7895 23.647 14.1347 23.3018L20.1664 17.2518V31.1668C20.1664 31.653 20.3595 32.1193 20.7033 32.4632C21.0471 32.807 21.5135 33.0001 21.9997 33.0001C22.4859 33.0001 22.9522 32.807 23.2961 32.4632C23.6399 32.1193 23.833 31.653 23.833 31.1668V17.2518L29.8647 23.3018C30.0351 23.4736 30.2379 23.61 30.4613 23.7031C30.6847 23.7962 30.9243 23.8441 31.1664 23.8441C31.4084 23.8441 31.648 23.7962 31.8714 23.7031C32.0948 23.61 32.2976 23.4736 32.468 23.3018C32.6399 23.1314 32.7762 22.9286 32.8693 22.7052C32.9624 22.4818 33.0103 22.2422 33.0103 22.0001C33.0103 21.7581 32.9624 21.5185 32.8693 21.2951C32.7762 21.0717 32.6399 20.8689 32.468 20.6985Z"
    fill="currentColor"
  />
</svg>