<svg width="50" height="50" viewBox="0 0 50 50" fill="none" xmlns="http://www.w3.org/2000/svg">
<path d="M32.3567 39.5194C32.5019 39.6646 32.617 39.8369 32.6956 40.0266C32.7742 40.2163 32.8146 40.4196 32.8146 40.6249C32.8146 40.8302 32.7742 41.0335 32.6956 41.2232C32.617 41.4128 32.5019 41.5852 32.3567 41.7304C32.2115 41.8755 32.0392 41.9907 31.8495 42.0693C31.6598 42.1478 31.4565 42.1883 31.2512 42.1883C31.0459 42.1883 30.8426 42.1478 30.653 42.0693C30.4633 41.9907 30.2909 41.8755 30.1458 41.7304L14.5208 26.1054C14.3755 25.9602 14.2602 25.7879 14.1816 25.5982C14.103 25.4086 14.0625 25.2052 14.0625 24.9999C14.0625 24.7946 14.103 24.5912 14.1816 24.4015C14.2602 24.2119 14.3755 24.0395 14.5208 23.8944L30.1458 8.26942C30.4389 7.97623 30.8366 7.81152 31.2512 7.81152C31.6659 7.81152 32.0635 7.97623 32.3567 8.26942C32.6499 8.56261 32.8146 8.96026 32.8146 9.37489C32.8146 9.78952 32.6499 10.1872 32.3567 10.4804L17.8352 24.9999L32.3567 39.5194Z" fill="white"/>
</svg>
