<svg width="50" height="50" viewBox="0 0 50 50" fill="none" xmlns="http://www.w3.org/2000/svg">
<path d="M35.4813 26.1054L19.8563 41.7304C19.7112 41.8755 19.5388 41.9907 19.3491 42.0693C19.1595 42.1478 18.9562 42.1883 18.7509 42.1883C18.5456 42.1883 18.3423 42.1478 18.1526 42.0693C17.9629 41.9907 17.7906 41.8755 17.6454 41.7304C17.5002 41.5852 17.3851 41.4128 17.3065 41.2232C17.2279 41.0335 17.1875 40.8302 17.1875 40.6249C17.1875 40.4196 17.2279 40.2163 17.3065 40.0266C17.3851 39.8369 17.5002 39.6646 17.6454 39.5194L32.1669 24.9999L17.6454 10.4804C17.3522 10.1872 17.1875 9.78952 17.1875 9.37489C17.1875 8.96026 17.3522 8.56261 17.6454 8.26942C17.9386 7.97623 18.3362 7.81152 18.7509 7.81152C19.1655 7.81152 19.5631 7.97623 19.8563 8.26942L35.4813 23.8944C35.6266 24.0395 35.7419 24.2119 35.8205 24.4015C35.8991 24.5912 35.9396 24.7946 35.9396 24.9999C35.9396 25.2052 35.8991 25.4086 35.8205 25.5982C35.7419 25.7879 35.6266 25.9602 35.4813 26.1054Z" fill="white"/>
</svg>
